# xmcd
#
# Track frame offsets: 
#        150
#        25115
#        51581
#        69448
#        94382
#        114841
#        143713
#        172346
#        199426
#        225739
#        245499
#
# Disc length: 3531 seconds
#
# Revision: 0
# Processed by: cddbd v1.5.2PL0 Copyright (c) Steve Scherf et al.
# Submitted via: ExactAudioCopy v0.99pb5
#
DISCID=a10dc90b
DTITLE=Quynh Dung - Dem nho nguoi tinh
DYEAR=1900
DGENRE=Soundtrack
TTITLE0=Mot chuyen bay dem
TTITLE1=Chuyen vuon sau rieng
TTITLE2=Thuong muon
TTITLE3=Tua canh beo troi
TTITLE4=Hoi anh hoi em vs Quang Le
TTITLE5=Dieu buon phuong nam
TTITLE6=Hoa muoi gio
TTITLE7=Lk No va toi and Nhung ngay xua than ai vs Duy Truong and Thanh An
TTITLE8=Nhung dom mat hoa chau
TTITLE9=Dem nho nguoi tinh
TTITLE10=Ngan thu vinh biet
EXTD=
EXTT0=
EXTT1=
EXTT2=
EXTT3=
EXTT4=
EXTT5=
EXTT6=
EXTT7=
EXTT8=
EXTT9=
EXTT10=
PLAYORDER=
